<svg width="20" height="20" viewBox="0 0 20 20" fill="none" xmlns="http://www.w3.org/2000/svg">
<path d="M4.708 4C5.91173 2.93528 7.40925 2.25938 9.004 2.061C9.066 2.491 9.144 2.97 9.244 3.469C9.424 4.369 9.674 5.349 10.02 6.246C10.296 6.965 10.643 7.655 11.082 8.211L10 9.293L4.708 4ZM4 4.709C2.93487 5.91257 2.2586 7.41012 2.06 9.005C2.49 9.067 2.968 9.145 3.467 9.245C4.367 9.425 5.347 9.675 6.244 10.021C6.963 10.297 7.654 10.644 8.209 11.083L9.293 10L4 4.709ZM7.496 11.797C7.066 11.477 6.514 11.196 5.886 10.954C5.059 10.636 4.139 10.4 3.271 10.226C2.84928 10.1416 2.42547 10.0679 2 10.005C1.99833 11.9525 2.70978 13.8332 4 15.292L7.497 11.796L7.496 11.797ZM4.706 16L8.203 12.504C8.523 12.934 8.803 13.486 9.045 14.114C9.363 14.94 9.599 15.861 9.773 16.728C9.863 17.176 9.935 17.608 9.993 18.001C8.04585 18.0024 6.16553 17.291 4.707 16.001L4.706 16ZM8.916 11.79L10 10.708L15.292 16C14.0884 17.065 12.5909 17.7413 10.996 17.94C10.933 17.51 10.854 17.031 10.755 16.532C10.575 15.632 10.325 14.652 9.98 13.755C9.703 13.037 9.357 12.347 8.917 11.791L8.916 11.79ZM16 15.293C17.0651 14.0894 17.7414 12.5919 17.94 10.997C17.51 10.935 17.031 10.857 16.532 10.757C15.632 10.577 14.652 10.327 13.755 9.982C13.037 9.705 12.346 9.359 11.79 8.919L10.707 10L16 15.292V15.293ZM12.503 8.206C12.933 8.526 13.486 8.806 14.113 9.048C14.94 9.366 15.861 9.602 16.728 9.776C17.176 9.866 17.608 9.938 18.001 9.996C18.0027 8.04851 17.2912 6.16779 16.001 4.709L12.503 8.206ZM15.292 4C13.8332 2.70978 11.9525 1.99833 10.005 2C10.063 2.393 10.135 2.825 10.225 3.273C10.399 4.141 10.635 5.061 10.953 5.887C11.195 6.515 11.475 7.067 11.795 7.497L15.292 4Z" fill="black"/>
</svg>
